<mxfile host="app.diagrams.net" agent="Mozilla/5.0 (Windows NT 10.0; Win64; x64) AppleWebKit/537.36 (KHTML, like Gecko) Chrome/128.0.0.0 Safari/537.36" version="24.7.14">
  <diagram name="Página-1" id="owBbcZ6yEUpY0fv_DnXE">
    <mxGraphModel dx="793" dy="1236" grid="1" gridSize="10" guides="1" tooltips="1" connect="1" arrows="1" fold="1" page="1" pageScale="1" pageWidth="827" pageHeight="1169" math="0" shadow="0">
      <root>
        <mxCell id="0" />
        <mxCell id="1" parent="0" />
        <mxCell id="hBpY7CpZ2ReoXCGUNM0J-1" value="Cliente" style="swimlane;fontStyle=1;align=center;verticalAlign=top;childLayout=stackLayout;horizontal=1;startSize=26;horizontalStack=0;resizeParent=1;resizeParentMax=0;resizeLast=0;collapsible=1;marginBottom=0;whiteSpace=wrap;html=1;" vertex="1" parent="1">
          <mxGeometry x="140" y="420" width="290" height="214" as="geometry" />
        </mxCell>
        <mxCell id="hBpY7CpZ2ReoXCGUNM0J-2" value="&lt;div&gt;- telefone: String&lt;/div&gt;" style="text;strokeColor=none;fillColor=none;align=left;verticalAlign=top;spacingLeft=4;spacingRight=4;overflow=hidden;rotatable=0;points=[[0,0.5],[1,0.5]];portConstraint=eastwest;whiteSpace=wrap;html=1;" vertex="1" parent="hBpY7CpZ2ReoXCGUNM0J-1">
          <mxGeometry y="26" width="290" height="24" as="geometry" />
        </mxCell>
        <mxCell id="hBpY7CpZ2ReoXCGUNM0J-3" value="" style="line;strokeWidth=1;fillColor=none;align=left;verticalAlign=middle;spacingTop=-1;spacingLeft=3;spacingRight=3;rotatable=0;labelPosition=right;points=[];portConstraint=eastwest;strokeColor=inherit;" vertex="1" parent="hBpY7CpZ2ReoXCGUNM0J-1">
          <mxGeometry y="50" width="290" height="8" as="geometry" />
        </mxCell>
        <mxCell id="hBpY7CpZ2ReoXCGUNM0J-4" value="+ PesquisarAcomodacao (Lugar: String, Check-in : Data, Checkout : Data, Hospedes : ArrayList&amp;lt;Hospede&amp;gt;): Hospedagem&lt;div&gt;&lt;br&gt;&lt;/div&gt;&lt;div&gt;&lt;br&gt;&lt;/div&gt;" style="text;strokeColor=none;fillColor=none;align=left;verticalAlign=top;spacingLeft=4;spacingRight=4;overflow=hidden;rotatable=0;points=[[0,0.5],[1,0.5]];portConstraint=eastwest;whiteSpace=wrap;html=1;" vertex="1" parent="hBpY7CpZ2ReoXCGUNM0J-1">
          <mxGeometry y="58" width="290" height="62" as="geometry" />
        </mxCell>
        <mxCell id="hBpY7CpZ2ReoXCGUNM0J-22" value="+ ReservarAcomodacao (hospedagem : Hospedagem, Check-in : Data, Checkout : Data, Hospedes : ArrayList&amp;lt;Hospede&amp;gt;): Reserva&lt;div&gt;&lt;br&gt;&lt;/div&gt;&lt;div&gt;&lt;br&gt;&lt;/div&gt;" style="text;strokeColor=none;fillColor=none;align=left;verticalAlign=top;spacingLeft=4;spacingRight=4;overflow=hidden;rotatable=0;points=[[0,0.5],[1,0.5]];portConstraint=eastwest;whiteSpace=wrap;html=1;" vertex="1" parent="hBpY7CpZ2ReoXCGUNM0J-1">
          <mxGeometry y="120" width="290" height="62" as="geometry" />
        </mxCell>
        <mxCell id="hBpY7CpZ2ReoXCGUNM0J-27" value="+ ModificarReserva(idReserva : int): Reserva&lt;div&gt;&lt;br&gt;&lt;/div&gt;" style="text;strokeColor=none;fillColor=none;align=left;verticalAlign=top;spacingLeft=4;spacingRight=4;overflow=hidden;rotatable=0;points=[[0,0.5],[1,0.5]];portConstraint=eastwest;whiteSpace=wrap;html=1;" vertex="1" parent="hBpY7CpZ2ReoXCGUNM0J-1">
          <mxGeometry y="182" width="290" height="32" as="geometry" />
        </mxCell>
        <mxCell id="hBpY7CpZ2ReoXCGUNM0J-5" value="Hospedagem" style="swimlane;fontStyle=1;align=center;verticalAlign=top;childLayout=stackLayout;horizontal=1;startSize=26;horizontalStack=0;resizeParent=1;resizeParentMax=0;resizeLast=0;collapsible=1;marginBottom=0;whiteSpace=wrap;html=1;" vertex="1" parent="1">
          <mxGeometry x="750" y="80" width="260" height="270" as="geometry" />
        </mxCell>
        <mxCell id="hBpY7CpZ2ReoXCGUNM0J-6" value="- nome : String&lt;div&gt;&lt;br&gt;&lt;div&gt;- endereco : String&lt;/div&gt;&lt;div&gt;&lt;br&gt;&lt;/div&gt;&lt;div&gt;- tipo : String&lt;/div&gt;&lt;/div&gt;&lt;div&gt;&lt;br&gt;&lt;/div&gt;&lt;div&gt;- fotos : ArrayList&amp;lt;String&amp;gt;&lt;/div&gt;&lt;div&gt;&lt;br&gt;&lt;/div&gt;&lt;div&gt;- comodidades : ArrayList&amp;lt;Comodidade&amp;gt;&lt;/div&gt;&lt;div&gt;&lt;br&gt;&lt;/div&gt;&lt;div&gt;- preço : double&lt;/div&gt;" style="text;strokeColor=none;fillColor=none;align=left;verticalAlign=top;spacingLeft=4;spacingRight=4;overflow=hidden;rotatable=0;points=[[0,0.5],[1,0.5]];portConstraint=eastwest;whiteSpace=wrap;html=1;" vertex="1" parent="hBpY7CpZ2ReoXCGUNM0J-5">
          <mxGeometry y="26" width="260" height="164" as="geometry" />
        </mxCell>
        <mxCell id="hBpY7CpZ2ReoXCGUNM0J-7" value="" style="line;strokeWidth=1;fillColor=none;align=left;verticalAlign=middle;spacingTop=-1;spacingLeft=3;spacingRight=3;rotatable=0;labelPosition=right;points=[];portConstraint=eastwest;strokeColor=inherit;" vertex="1" parent="hBpY7CpZ2ReoXCGUNM0J-5">
          <mxGeometry y="190" width="260" height="8" as="geometry" />
        </mxCell>
        <mxCell id="hBpY7CpZ2ReoXCGUNM0J-8" value="+ ExibirDetalhes(): Hospedagem&lt;div&gt;&lt;br&gt;&lt;/div&gt;&lt;div&gt;+ ChecarDisponibilidade( Check-in: Data, CheckOut : Data, Hospedes :&lt;br&gt;&lt;div&gt;&lt;br&gt;&lt;/div&gt;&lt;/div&gt;" style="text;strokeColor=none;fillColor=none;align=left;verticalAlign=top;spacingLeft=4;spacingRight=4;overflow=hidden;rotatable=0;points=[[0,0.5],[1,0.5]];portConstraint=eastwest;whiteSpace=wrap;html=1;" vertex="1" parent="hBpY7CpZ2ReoXCGUNM0J-5">
          <mxGeometry y="198" width="260" height="72" as="geometry" />
        </mxCell>
        <mxCell id="hBpY7CpZ2ReoXCGUNM0J-9" value="Administrador" style="swimlane;fontStyle=1;align=center;verticalAlign=top;childLayout=stackLayout;horizontal=1;startSize=22;horizontalStack=0;resizeParent=1;resizeParentMax=0;resizeLast=0;collapsible=1;marginBottom=0;whiteSpace=wrap;html=1;direction=east;" vertex="1" parent="1">
          <mxGeometry x="544" y="420" width="340" height="90" as="geometry" />
        </mxCell>
        <mxCell id="hBpY7CpZ2ReoXCGUNM0J-13" value="- idColaborador: String" style="text;strokeColor=none;fillColor=none;align=left;verticalAlign=top;spacingLeft=4;spacingRight=4;overflow=hidden;rotatable=0;points=[[0,0.5],[1,0.5]];portConstraint=eastwest;whiteSpace=wrap;html=1;" vertex="1" parent="hBpY7CpZ2ReoXCGUNM0J-9">
          <mxGeometry y="22" width="340" height="28" as="geometry" />
        </mxCell>
        <mxCell id="hBpY7CpZ2ReoXCGUNM0J-11" value="" style="line;strokeWidth=1;fillColor=none;align=left;verticalAlign=middle;spacingTop=-1;spacingLeft=3;spacingRight=3;rotatable=0;labelPosition=right;points=[];portConstraint=eastwest;strokeColor=inherit;" vertex="1" parent="hBpY7CpZ2ReoXCGUNM0J-9">
          <mxGeometry y="50" width="340" height="8" as="geometry" />
        </mxCell>
        <mxCell id="hBpY7CpZ2ReoXCGUNM0J-12" value="+ CadastrarHospedagem(hospedagem : Hospedagem): void&lt;div&gt;&lt;br&gt;&lt;/div&gt;" style="text;strokeColor=none;fillColor=none;align=left;verticalAlign=top;spacingLeft=4;spacingRight=4;overflow=hidden;rotatable=0;points=[[0,0.5],[1,0.5]];portConstraint=eastwest;whiteSpace=wrap;html=1;" vertex="1" parent="hBpY7CpZ2ReoXCGUNM0J-9">
          <mxGeometry y="58" width="340" height="32" as="geometry" />
        </mxCell>
        <mxCell id="hBpY7CpZ2ReoXCGUNM0J-14" value="Usuário&lt;div&gt;&lt;br&gt;&lt;/div&gt;" style="swimlane;fontStyle=1;align=center;verticalAlign=top;childLayout=stackLayout;horizontal=1;startSize=26;horizontalStack=0;resizeParent=1;resizeParentMax=0;resizeLast=0;collapsible=1;marginBottom=0;whiteSpace=wrap;html=1;" vertex="1" parent="1">
          <mxGeometry x="320" y="40" width="290" height="310" as="geometry" />
        </mxCell>
        <mxCell id="hBpY7CpZ2ReoXCGUNM0J-15" value="- nome: String&lt;div&gt;&lt;br&gt;&lt;div&gt;&lt;div&gt;- email: String&lt;/div&gt;&lt;div&gt;&lt;br&gt;&lt;/div&gt;&lt;div&gt;- senha: String&lt;/div&gt;&lt;div&gt;&lt;br&gt;&lt;/div&gt;&lt;div&gt;-Permissões: ArrayList&amp;lt;String&amp;gt;&lt;/div&gt;&lt;div&gt;&lt;br&gt;&lt;/div&gt;&lt;/div&gt;&lt;/div&gt;" style="text;strokeColor=none;fillColor=none;align=left;verticalAlign=top;spacingLeft=4;spacingRight=4;overflow=hidden;rotatable=0;points=[[0,0.5],[1,0.5]];portConstraint=eastwest;whiteSpace=wrap;html=1;" vertex="1" parent="hBpY7CpZ2ReoXCGUNM0J-14">
          <mxGeometry y="26" width="290" height="116" as="geometry" />
        </mxCell>
        <mxCell id="hBpY7CpZ2ReoXCGUNM0J-16" value="" style="line;strokeWidth=1;fillColor=none;align=left;verticalAlign=middle;spacingTop=-1;spacingLeft=3;spacingRight=3;rotatable=0;labelPosition=right;points=[];portConstraint=eastwest;strokeColor=inherit;" vertex="1" parent="hBpY7CpZ2ReoXCGUNM0J-14">
          <mxGeometry y="142" width="290" height="8" as="geometry" />
        </mxCell>
        <mxCell id="hBpY7CpZ2ReoXCGUNM0J-17" value="+ login(email : String, senha : String): Sessão&lt;div&gt;&lt;br&gt;&lt;/div&gt;&lt;div&gt;+ logout(email : String, senha : String): Sessão&lt;/div&gt;&lt;div&gt;&lt;br&gt;&lt;/div&gt;&lt;div&gt;+ RecuperarSenha(email : String): Sessão&lt;/div&gt;&lt;div&gt;&lt;br&gt;&lt;/div&gt;&lt;div&gt;+ TrocarSenha(senhaAntiga: String, senhaNova: String): Sessão&lt;/div&gt;&lt;div&gt;&lt;br&gt;&lt;/div&gt;&lt;div&gt;+ Cadastrar(email: String, senha: String) Sessão&lt;/div&gt;" style="text;strokeColor=none;fillColor=none;align=left;verticalAlign=top;spacingLeft=4;spacingRight=4;overflow=hidden;rotatable=0;points=[[0,0.5],[1,0.5]];portConstraint=eastwest;whiteSpace=wrap;html=1;" vertex="1" parent="hBpY7CpZ2ReoXCGUNM0J-14">
          <mxGeometry y="150" width="290" height="160" as="geometry" />
        </mxCell>
        <mxCell id="hBpY7CpZ2ReoXCGUNM0J-19" value="Extends" style="endArrow=block;endSize=16;endFill=0;html=1;rounded=0;exitX=0.34;exitY=0.01;exitDx=0;exitDy=0;exitPerimeter=0;entryX=0.724;entryY=1;entryDx=0;entryDy=0;entryPerimeter=0;" edge="1" parent="1" source="hBpY7CpZ2ReoXCGUNM0J-9" target="hBpY7CpZ2ReoXCGUNM0J-17">
          <mxGeometry width="160" relative="1" as="geometry">
            <mxPoint x="460" y="350" as="sourcePoint" />
            <mxPoint x="511.98" y="321.2560000000001" as="targetPoint" />
          </mxGeometry>
        </mxCell>
        <mxCell id="hBpY7CpZ2ReoXCGUNM0J-23" value="Reserva" style="swimlane;fontStyle=1;align=center;verticalAlign=top;childLayout=stackLayout;horizontal=1;startSize=26;horizontalStack=0;resizeParent=1;resizeParentMax=0;resizeLast=0;collapsible=1;marginBottom=0;whiteSpace=wrap;html=1;" vertex="1" parent="1">
          <mxGeometry x="634" y="585" width="250" height="244" as="geometry" />
        </mxCell>
        <mxCell id="hBpY7CpZ2ReoXCGUNM0J-24" value="+ cliente: Cliente&lt;div&gt;&lt;br&gt;&lt;/div&gt;&lt;div&gt;+ hospedagem: Hospedagem&lt;br&gt;&lt;br&gt;+ checkin: Data&lt;/div&gt;&lt;div&gt;&lt;br&gt;&lt;/div&gt;&lt;div&gt;+ checkout: Data&lt;/div&gt;&lt;div&gt;&lt;br&gt;&lt;/div&gt;&lt;div&gt;+ listaDeHospedes: ArrayList&amp;lt;Hospedes&amp;gt;&lt;/div&gt;&lt;div&gt;&lt;br&gt;&lt;/div&gt;&lt;div&gt;+ status: String&lt;/div&gt;" style="text;strokeColor=none;fillColor=none;align=left;verticalAlign=top;spacingLeft=4;spacingRight=4;overflow=hidden;rotatable=0;points=[[0,0.5],[1,0.5]];portConstraint=eastwest;whiteSpace=wrap;html=1;" vertex="1" parent="hBpY7CpZ2ReoXCGUNM0J-23">
          <mxGeometry y="26" width="250" height="184" as="geometry" />
        </mxCell>
        <mxCell id="hBpY7CpZ2ReoXCGUNM0J-25" value="" style="line;strokeWidth=1;fillColor=none;align=left;verticalAlign=middle;spacingTop=-1;spacingLeft=3;spacingRight=3;rotatable=0;labelPosition=right;points=[];portConstraint=eastwest;strokeColor=inherit;" vertex="1" parent="hBpY7CpZ2ReoXCGUNM0J-23">
          <mxGeometry y="210" width="250" height="8" as="geometry" />
        </mxCell>
        <mxCell id="hBpY7CpZ2ReoXCGUNM0J-26" value="+ method(type): type" style="text;strokeColor=none;fillColor=none;align=left;verticalAlign=top;spacingLeft=4;spacingRight=4;overflow=hidden;rotatable=0;points=[[0,0.5],[1,0.5]];portConstraint=eastwest;whiteSpace=wrap;html=1;" vertex="1" parent="hBpY7CpZ2ReoXCGUNM0J-23">
          <mxGeometry y="218" width="250" height="26" as="geometry" />
        </mxCell>
        <mxCell id="hBpY7CpZ2ReoXCGUNM0J-28" value="Relation" style="endArrow=open;html=1;endSize=12;startArrow=diamondThin;startSize=14;startFill=0;edgeStyle=orthogonalEdgeStyle;rounded=0;entryX=1.014;entryY=0.826;entryDx=0;entryDy=0;entryPerimeter=0;exitX=-0.011;exitY=0.645;exitDx=0;exitDy=0;exitPerimeter=0;" edge="1" parent="1" source="hBpY7CpZ2ReoXCGUNM0J-24" target="hBpY7CpZ2ReoXCGUNM0J-4">
          <mxGeometry relative="1" as="geometry">
            <mxPoint x="350" y="740" as="sourcePoint" />
            <mxPoint x="510" y="740" as="targetPoint" />
          </mxGeometry>
        </mxCell>
        <mxCell id="hBpY7CpZ2ReoXCGUNM0J-29" value="0..n" style="edgeLabel;resizable=0;html=1;align=left;verticalAlign=top;" connectable="0" vertex="1" parent="hBpY7CpZ2ReoXCGUNM0J-28">
          <mxGeometry x="-1" relative="1" as="geometry" />
        </mxCell>
        <mxCell id="hBpY7CpZ2ReoXCGUNM0J-30" value="1" style="edgeLabel;resizable=0;html=1;align=right;verticalAlign=top;" connectable="0" vertex="1" parent="hBpY7CpZ2ReoXCGUNM0J-28">
          <mxGeometry x="1" relative="1" as="geometry" />
        </mxCell>
        <mxCell id="hBpY7CpZ2ReoXCGUNM0J-34" value="Extends" style="endArrow=block;endSize=16;endFill=0;html=1;rounded=0;entryX=0.401;entryY=1.037;entryDx=0;entryDy=0;entryPerimeter=0;exitX=0.576;exitY=0.007;exitDx=0;exitDy=0;exitPerimeter=0;" edge="1" parent="1" source="hBpY7CpZ2ReoXCGUNM0J-1" target="hBpY7CpZ2ReoXCGUNM0J-17">
          <mxGeometry width="160" relative="1" as="geometry">
            <mxPoint x="270" y="400" as="sourcePoint" />
            <mxPoint x="433.3900000000001" y="322.48800000000006" as="targetPoint" />
          </mxGeometry>
        </mxCell>
      </root>
    </mxGraphModel>
  </diagram>
</mxfile>
